<?xml version="1.0" encoding="UTF-8"?>
<svg width="312px" height="95px" viewBox="0 0 312 95" version="1.1" xmlns="http://www.w3.org/2000/svg" xmlns:xlink="http://www.w3.org/1999/xlink">
    <!-- Generator: Sketch 52.6 (67491) - http://www.bohemiancoding.com/sketch -->
    <title>Invisible Dragon</title>
    <desc>Created with Sketch.</desc>
    <g id="Invisible-Dragon" stroke="none" stroke-width="1" fill="none" fill-rule="evenodd">
        <path d="M92.138293,4 L103.443957,4 L103.443957,40.5068359 L92.138293,40.5068359 L92.138293,4 Z M109.669543,14.0605469 L119.107532,14.0605469 L119.107532,18.3686523 C120.518672,16.6088779 121.946392,15.3513221 123.390735,14.5959473 C124.835078,13.8405724 126.594826,13.4628906 128.670032,13.4628906 C131.47571,13.4628906 133.671245,14.2971108 135.256702,15.9655762 C136.842159,17.6340415 137.634876,20.2114083 137.634876,23.6977539 L137.634876,40.5068359 L127.449817,40.5068359 L127.449817,25.9638672 C127.449817,24.3037026 127.142691,23.1291538 126.52843,22.4401855 C125.914169,21.7512173 125.050897,21.4067383 123.938586,21.4067383 C122.710065,21.4067383 121.713981,21.8715774 120.950305,22.8012695 C120.186629,23.7309617 119.804797,25.399402 119.804797,27.8066406 L119.804797,40.5068359 L109.669543,40.5068359 L109.669543,14.0605469 Z M138.108021,14.0605469 L148.666614,14.0605469 L153.796497,30.8198242 L159.100696,14.0605469 L169.33556,14.0605469 L158.104603,40.5068359 L149.114856,40.5068359 L138.108021,14.0605469 Z M171.452259,4 L181.587513,4 L181.587513,10.8979492 L171.452259,10.8979492 L171.452259,4 Z M171.452259,14.0605469 L181.587513,14.0605469 L181.587513,40.5068359 L171.452259,40.5068359 L171.452259,14.0605469 Z M185.073842,33.1855469 L195.134389,32.2392578 C195.54943,33.4345763 196.130479,34.2895482 196.877553,34.8041992 C197.624627,35.3188502 198.620711,35.5761719 199.865834,35.5761719 C201.227169,35.5761719 202.281358,35.2856474 203.028432,34.7045898 C203.609489,34.2729471 203.900014,33.7334017 203.900014,33.0859375 C203.900014,32.3554651 203.518182,31.7910176 202.754506,31.3925781 C202.206652,31.1103502 200.754029,30.7617208 198.396596,30.3466797 C194.877047,29.7324188 192.432491,29.163821 191.062855,28.6408691 C189.69322,28.1179173 188.539423,27.2338929 187.60143,25.9887695 C186.663437,24.7436461 186.194447,23.3242267 186.194447,21.7304688 C186.194447,19.987296 186.70079,18.4848696 187.71349,17.2231445 C188.726191,15.9614195 190.120708,15.0192902 191.897084,14.3967285 C193.67346,13.7741668 196.05576,13.4628906 199.044057,13.4628906 C202.198369,13.4628906 204.526715,13.7036109 206.029164,14.1850586 C207.531613,14.6665063 208.785018,15.4135692 209.789418,16.4262695 C210.793818,17.4389699 211.628038,18.8085851 212.292103,20.5351562 L202.679799,21.4814453 C202.430774,20.6347614 202.015739,20.012209 201.434682,19.6137695 C200.637803,19.0825169 199.674922,18.8168945 198.54601,18.8168945 C197.400496,18.8168945 196.566276,19.0202616 196.043324,19.427002 C195.520372,19.8337423 195.2589,20.3276338 195.2589,20.9086914 C195.2589,21.5561556 195.590928,22.0458968 196.254994,22.3779297 C196.91906,22.7099626 198.363381,23.0087877 200.588002,23.2744141 C203.958136,23.6562519 206.464947,24.1874966 208.10851,24.8681641 C209.752073,25.5488315 211.009628,26.5200132 211.881215,27.7817383 C212.752801,29.0434633 213.188588,30.4296799 213.188588,31.9404297 C213.188588,33.4677811 212.727899,34.9536061 211.806508,36.3979492 C210.885116,37.8422924 209.432494,38.9919391 207.448598,39.8469238 C205.464701,40.7019086 202.762824,41.1293945 199.342885,41.1293945 C194.511806,41.1293945 191.071166,40.4404366 189.020863,39.0625 C186.97056,37.6845634 185.654899,35.7255986 185.073842,33.1855469 Z M217.197866,4 L227.33312,4 L227.33312,10.8979492 L217.197866,10.8979492 L217.197866,4 Z M217.197866,14.0605469 L227.33312,14.0605469 L227.33312,40.5068359 L217.197866,40.5068359 L217.197866,14.0605469 Z M232.662222,4 L242.897085,4 L242.897085,16.6503906 C243.909785,15.5878853 245.059432,14.7910183 246.34606,14.2597656 C247.632687,13.728513 249.056257,13.4628906 250.616811,13.4628906 C253.837531,13.4628906 256.502055,14.620838 258.610464,16.9367676 C260.718873,19.2526971 261.773061,22.5771268 261.773061,26.9101562 C261.773061,29.7988426 261.291621,32.3430066 260.328726,34.5427246 C259.36583,36.7424426 258.033568,38.3859809 256.331899,39.4733887 C254.630231,40.5607965 252.741822,41.1044922 250.666616,41.1044922 C248.89024,41.1044922 247.263303,40.7226601 245.785757,39.9589844 C244.673447,39.3613251 243.461545,38.2407309 242.150015,36.597168 L242.150015,40.5068359 L232.662222,40.5068359 L232.662222,4 Z M242.822378,27.2089844 C242.822378,29.4834098 243.249864,31.1310984 244.104849,32.1520996 C244.959833,33.1731008 246.043074,33.6835938 247.354604,33.6835938 C248.566525,33.6835938 249.58336,33.1814015 250.405142,32.177002 C251.226923,31.1726024 251.637808,29.4834103 251.637808,27.109375 C251.637808,25.0175677 251.235224,23.4819385 250.430044,22.5024414 C249.624864,21.5229443 248.649532,21.0332031 247.504019,21.0332031 C246.126082,21.0332031 245.001337,21.5436961 244.129751,22.5646973 C243.258165,23.5856985 242.822378,25.1337787 242.822378,27.2089844 Z M265.782339,4 L275.942496,4 L275.942496,40.5068359 L265.782339,40.5068359 L265.782339,4 Z M310.581656,29.7988281 L290.261344,29.7988281 C290.443962,31.4257894 290.883899,32.6376913 291.581168,33.4345703 C292.560665,34.5800839 293.838973,35.152832 295.416129,35.152832 C296.412228,35.152832 297.358507,34.9038111 298.254996,34.4057617 C298.80285,34.0903305 299.3922,33.5341837 300.023062,32.7373047 L310.008902,33.6586914 C308.481551,36.3149547 306.638796,38.2199649 304.480582,39.3737793 C302.322368,40.5275937 299.226208,41.1044922 295.192008,41.1044922 C291.689061,41.1044922 288.933229,40.6106006 286.92443,39.6228027 C284.915631,38.6350048 283.251341,37.0661729 281.93151,34.9162598 C280.611679,32.7663467 279.951773,30.2387841 279.951773,27.3334961 C279.951773,23.1996864 281.275735,19.854505 283.923697,17.2978516 C286.57166,14.7411982 290.228117,13.4628906 294.89318,13.4628906 C298.678355,13.4628906 301.666606,14.0356388 303.858023,15.1811523 C306.049441,16.3266659 307.717881,17.9868055 308.863394,20.1616211 C310.008908,22.3364367 310.581656,25.1669748 310.581656,28.6533203 L310.581656,29.7988281 Z M300.272086,24.9428711 C300.072866,22.9838769 299.545772,21.5810589 298.690787,20.734375 C297.835802,19.8876911 296.711058,19.4643555 295.316519,19.4643555 C293.70616,19.4643555 292.419552,20.1035092 291.456656,21.3818359 C290.842395,22.1787149 290.452262,23.3657148 290.286246,24.9428711 L300.272086,24.9428711 Z M91.8394649,44 L108.598742,44 C111.90247,44 114.571144,44.4482377 116.604846,45.3447266 C118.638547,46.2412154 120.319439,47.5278236 121.64757,49.2045898 C122.975702,50.881356 123.938583,52.8320201 124.536242,55.0566406 C125.133901,57.2812611 125.432727,59.6386594 125.432727,62.1289062 C125.432727,66.0302929 124.988639,69.0558975 124.100451,71.2058105 C123.212263,73.3557236 121.979609,75.1569752 120.402453,76.6096191 C118.825297,78.0622631 117.131954,79.0292945 115.322375,79.5107422 C112.84873,80.174808 110.607541,80.5068359 108.598742,80.5068359 L91.8394649,80.5068359 L91.8394649,44 Z M103.120227,52.2675781 L103.120227,72.2143555 L105.884387,72.2143555 C108.24182,72.2143555 109.918561,71.9528835 110.91466,71.4299316 C111.910759,70.9069798 112.691025,69.993903 113.25548,68.6906738 C113.819936,67.3874447 114.10216,65.274917 114.10216,62.3530273 C114.10216,58.4848439 113.471307,55.8369212 112.209582,54.4091797 C110.947857,52.9814382 108.856081,52.2675781 105.934191,52.2675781 L103.120227,52.2675781 Z M129.591418,54.0605469 L139.079211,54.0605469 L139.079211,58.3935547 C139.992302,56.5175687 140.934431,55.2268102 141.905627,54.5212402 C142.876824,53.8156703 144.076275,53.4628906 145.504016,53.4628906 C146.998164,53.4628906 148.633402,53.9277297 150.409778,54.8574219 L147.272083,62.0791016 C146.076764,61.5810522 145.130484,61.3320312 144.433215,61.3320312 C143.105084,61.3320312 142.075797,61.8798773 141.345325,62.9755859 C140.299421,64.519539 139.776477,67.408182 139.776477,71.6416016 L139.776477,80.5068359 L129.591418,80.5068359 L129.591418,54.0605469 Z M161.043079,62.6269531 L151.356067,61.605957 C151.721304,59.9125892 152.248398,58.5803271 152.937366,57.6091309 C153.626335,56.6379346 154.618268,55.7954137 155.913196,55.081543 C156.842888,54.566892 158.121196,54.1684584 159.748157,53.8862305 C161.375118,53.6040025 163.134867,53.4628906 165.027454,53.4628906 C168.065555,53.4628906 170.505961,53.6330549 172.348743,53.9733887 C174.191526,54.3137224 175.727155,55.0234321 176.955677,56.1025391 C177.818962,56.8496131 178.49962,57.9079521 178.997669,59.2775879 C179.495718,60.6472236 179.744739,61.9545836 179.744739,63.199707 L179.744739,74.8789062 C179.744739,76.1240297 179.823596,77.0993617 179.981312,77.8049316 C180.139027,78.5105016 180.483506,79.4111273 181.014759,80.5068359 L171.502063,80.5068359 C171.120226,79.8261685 170.871205,79.3073748 170.754993,78.9504395 C170.638782,78.5935041 170.522572,78.0332069 170.40636,77.2695312 C169.078229,78.547858 167.758418,79.4609348 166.446888,80.0087891 C164.65391,80.7392615 162.570435,81.1044922 160.196399,81.1044922 C157.042087,81.1044922 154.647335,80.3740307 153.012073,78.9130859 C151.376811,77.4521411 150.559192,75.6508896 150.559192,73.5092773 C150.559192,71.5004782 151.148542,69.8486393 152.327259,68.5537109 C153.505976,67.2587826 155.680759,66.2959016 158.851673,65.6650391 C162.65345,64.9013634 165.118757,64.3659683 166.247669,64.0588379 C167.376581,63.7517074 168.571881,63.3491236 169.833606,62.8510742 C169.833606,61.6059508 169.576285,60.7343775 169.061634,60.2363281 C168.546983,59.7382788 167.642207,59.4892578 166.347278,59.4892578 C164.687114,59.4892578 163.442009,59.7548802 162.611927,60.2861328 C161.964463,60.701174 161.441519,61.4814396 161.043079,62.6269531 Z M169.833606,67.9560547 C168.439068,68.4541041 166.986446,68.8940411 165.475696,69.2758789 C163.417092,69.8237332 162.113883,70.3632786 161.566028,70.8945312 C161.001572,71.4423856 160.719349,72.0649379 160.719349,72.762207 C160.719349,73.559086 160.997422,74.2106908 161.553577,74.717041 C162.109732,75.2233912 162.927351,75.4765625 164.006458,75.4765625 C165.13537,75.4765625 166.185408,75.2026395 167.156604,74.6547852 C168.127801,74.1069309 168.816759,73.4387246 169.223499,72.6501465 C169.630239,71.8615683 169.833606,70.8364321 169.833606,69.574707 L169.833606,67.9560547 Z M203.850208,54.0605469 L213.338001,54.0605469 L213.338001,79.0375977 L213.362904,80.2080078 C213.362904,81.8681724 213.010124,83.4494554 212.304554,84.9519043 C211.598984,86.4543532 210.661005,87.6704055 209.490589,88.6000977 C208.320173,89.5297898 206.834348,90.2021464 205.03307,90.6171875 C203.231791,91.0322286 201.169068,91.2397461 198.844837,91.2397461 C193.532311,91.2397461 189.884154,90.4428791 187.900257,88.8491211 C185.916361,87.2553631 184.924427,85.1220837 184.924427,82.4492188 C184.924427,82.1171858 184.941029,81.6689481 184.974232,81.1044922 L194.810658,82.2250977 C195.059682,83.1381882 195.441515,83.7690412 195.956166,84.1176758 C196.70324,84.6323268 197.641218,84.8896484 198.77013,84.8896484 C200.231075,84.8896484 201.322617,84.4995156 202.044789,83.7192383 C202.76696,82.9389609 203.128041,81.5776464 203.128041,79.6352539 L203.128041,75.6259766 C202.131942,76.8046934 201.135858,77.6596653 200.139759,78.190918 C198.579205,79.0210002 196.894163,79.4360352 195.084583,79.4360352 C191.548433,79.4360352 188.692993,77.8921053 186.518177,74.8041992 C184.974224,72.612782 184.202259,69.7158383 184.202259,66.1132812 C184.202259,61.9960732 185.198343,58.8584092 187.190541,56.7001953 C189.182738,54.5419814 191.789157,53.4628906 195.009876,53.4628906 C197.06848,53.4628906 198.765973,53.81152 200.102406,54.5087891 C201.438838,55.2060582 202.688093,56.3598552 203.850208,57.9702148 L203.850208,54.0605469 Z M194.312611,66.8852539 C194.312611,68.7944431 194.719345,70.2097122 195.532826,71.1311035 C196.346306,72.0524948 197.417096,72.5131836 198.745228,72.5131836 C200.006953,72.5131836 201.065292,72.0358934 201.920277,71.0812988 C202.775262,70.1267042 203.202748,68.6865331 203.202748,66.7607422 C203.202748,64.8349513 202.75451,63.3615774 201.858021,62.3405762 C200.961532,61.319575 199.86584,60.809082 198.570912,60.809082 C197.275983,60.809082 196.242546,61.2780715 195.47057,62.2160645 C194.698593,63.1540574 194.312611,64.7104383 194.312611,66.8852539 Z M217.023549,67.3583984 C217.023549,63.3241986 218.384863,59.9997689 221.107533,57.3850098 C223.830203,54.7702506 227.507412,53.4628906 232.139271,53.4628906 C237.435196,53.4628906 241.436133,54.9985198 244.142201,58.0698242 C246.317017,60.5434694 247.404408,63.5898257 247.404408,67.2089844 C247.404408,71.2763875 246.055545,74.6091179 243.357777,77.2072754 C240.66001,79.8054329 236.928846,81.1044922 232.164174,81.1044922 C227.914153,81.1044922 224.477663,80.0254014 221.854603,77.8671875 C218.633884,75.1943226 217.023549,71.6914279 217.023549,67.3583984 Z M227.183705,67.3334961 C227.183705,69.6909298 227.660995,71.4340764 228.61559,72.5629883 C229.570184,73.6919002 230.769635,74.2563477 232.213978,74.2563477 C233.674923,74.2563477 234.874374,73.7002009 235.812367,72.5878906 C236.75036,71.4755804 237.21935,69.6909303 237.21935,67.2338867 C237.21935,64.9428596 236.74621,63.2370661 235.799916,62.1164551 C234.853622,60.995844 233.683224,60.4355469 232.288686,60.4355469 C230.811139,60.4355469 229.590936,61.0041447 228.628041,62.1413574 C227.665146,63.2785701 227.183705,65.0092657 227.183705,67.3334961 Z M251.089956,54.0605469 L260.527944,54.0605469 L260.527944,58.3686523 C261.939084,56.6088779 263.366804,55.3513221 264.811147,54.5959473 C266.25549,53.8405724 268.015238,53.4628906 270.090444,53.4628906 C272.896122,53.4628906 275.091657,54.2971108 276.677114,55.9655762 C278.262571,57.6340415 279.055288,60.2114083 279.055288,63.6977539 L279.055288,80.5068359 L268.870229,80.5068359 L268.870229,65.9638672 C268.870229,64.3037026 268.563103,63.1291538 267.948842,62.4401855 C267.334581,61.7512173 266.471309,61.4067383 265.358999,61.4067383 C264.130477,61.4067383 263.134393,61.8715774 262.370717,62.8012695 C261.607042,63.7309617 261.225209,65.399402 261.225209,67.8066406 L261.225209,80.5068359 L251.089956,80.5068359 L251.089956,54.0605469 Z" id="Invisible-Dragon-Copy" fill="#000000"></path>
        <path d="M39.5816736,80.6766527 C18.4080007,80.6766527 1.24334728,63.5119993 1.24334728,42.3383264 C1.24334728,21.1646534 18.4080007,4 39.5816736,4 C60.7553466,4 77.92,21.1646534 77.92,42.3383264 C77.92,63.5119993 60.7553466,80.6766527 39.5816736,80.6766527 Z M27.1104508,33.4632439 L41.4727674,20.8258721 L38.169844,17.0721144 L19.5315258,33.4719309 L38.1741509,49.7998656 L41.4684605,46.0385461 L27.1104508,33.4632439 Z M52.7504736,47.9483502 L38.3924639,60.5236524 L41.6867735,64.2849719 L60.3293987,47.9570372 L41.6910804,31.5572207 L38.388157,35.3109784 L52.7504736,47.9483502 Z" id="Shape" fill="#666666"></path>
    </g>
</svg>